# xmcd CD database file
#
# Track frame offsets:
#	150
#	20401
#	39149
#	59384
#	77207
#	95216
#	115202
#	140417
#	157310
#	176842
#	198569
#	220027
#	240246
#	257489
#	273675
#
# Disc length: 3810 seconds
#
# Revision: 1
# Processed by: cddbd v1.5.2PL0 Copyright (c) Steve Scherf et al.
# Submitted via: CDex 1.70beta2
#
DISCID=d70ee00f
DTITLE=石渡太輔 - GUILTY GEAR 2 OVERTURE ORIGINAL SOUNDTRACK Vol.2
DYEAR=2007
DGENRE=Game
TTITLE0=Keep Yourself Alive Ⅲ
TTITLE1=Ride on Time
TTITLE2=昼行灯
TTITLE3=Intellect,Reason,and the Wild
TTITLE4=The Mask Does Not Laugh
TTITLE5=Holy Orders (Be Just Or Be Dead)
TTITLE6=Worthless as the Sun Above Clouds
TTITLE7=Misadventure
TTITLE8=The Re-coming
TTITLE9=Communication
TTITLE10=The Man
TTITLE11=Diva
TTITLE12=Curtain Call
TTITLE13=The Fate Broke Down.
TTITLE14=You Only Have to Decide It.
EXTD=YEAR: 2007
EXTT0=
EXTT1=
EXTT2=
EXTT3=
EXTT4=
EXTT5=
EXTT6=
EXTT7=
EXTT8=
EXTT9=
EXTT10=
EXTT11=
EXTT12=
EXTT13=
EXTT14=
PLAYORDER=
